<svg width="599" height="242" viewBox="0 0 599 242" fill="none" xmlns="http://www.w3.org/2000/svg">
<path d="M200.67 161.369C201.891 160.002 202.647 159.123 202.94 158.732L208.946 163.713C208.946 163.908 207.994 165.397 206.09 168.181C204.186 170.964 201.988 173.527 199.498 175.871C197.057 178.166 194.737 179.313 192.54 179.313C190.538 179.313 188.121 178.947 185.289 178.215C182.506 177.434 178.526 176.237 173.351 174.626C164.464 171.745 158.629 170.305 155.846 170.305C154.527 170.305 153.062 170.915 151.451 172.136C149.84 173.308 148.424 174.577 147.203 175.944C146.031 177.263 145.299 178.117 145.006 178.508L139 173.601C139 173.405 139.952 171.916 141.856 169.133C143.761 166.301 145.934 163.737 148.375 161.442C150.816 159.147 153.136 158 155.333 158C157.872 158 160.729 158.415 163.902 159.245C167.125 160.075 171.129 161.296 175.914 162.907C180.113 164.323 183.434 165.373 185.875 166.057C188.316 166.691 190.392 167.009 192.101 167.009C193.419 167.009 194.859 166.423 196.422 165.251C198.033 164.03 199.449 162.736 200.67 161.369Z" fill="white"/>
<path d="M579.85 165.5L590.95 170.45L598.6 182.45V217.1C598.6 233.7 596.6 242 592.6 242C588.6 242 586.6 234.2 586.6 218.6V177.5H559.75L548.95 190.25C547.65 195.35 547 205.25 547 219.95C547 234.65 545 242 541 242C537 242 535 224.5 535 189.5C535 154.5 537 137 541 137C545 137 547 145.7 547 163.1C547 180.6 547.9 186.45 549.7 180.65L563.2 165.5H579.85Z" fill="white"/>
<path d="M501.9 147.75C492 147.75 487.05 154.1 487.05 166.8V193.95L494.25 200.4C496.35 200.3 498.6 200.25 501 200.25C503.4 200.25 505.95 200.25 508.65 200.25C513.95 200.25 516.6 202.1 516.6 205.8C516.6 209.6 513.95 211.5 508.65 211.5H488.7L475.05 198.9V166.8C475.05 154.1 471.9 147.75 465.6 147.75C459.2 147.75 456 145.85 456 142.05C456 138.35 459.2 136.5 465.6 136.5C471.9 136.5 475.05 133.25 475.05 126.75C475.05 120.25 477.05 117 481.05 117C485.05 117 487.05 120.25 487.05 126.75C487.05 133.25 492 136.5 501.9 136.5C511.7 136.5 516.6 138.35 516.6 142.05C516.6 145.85 511.7 147.75 501.9 147.75Z" fill="white"/>
<path d="M424.85 111L435.95 115.95L443.6 127.95V162.6C443.6 179.2 441.6 187.5 437.6 187.5C433.6 187.5 431.6 179.7 431.6 164.1V123H404.75L394.1 135.9C392.7 141.3 392 151.2 392 165.6C392 180.2 390 187.5 386 187.5C382 187.5 380 175 380 150C380 125 382 112.5 386 112.5C390 112.5 392 116.2 392 123.6C392 131.1 392.9 131.95 394.7 126.15L408.2 111H424.85Z" fill="white"/>
<path d="M360.254 127C361.354 127 361.654 128.5 361.154 131.5C360.754 134.4 359.804 138.35 358.304 143.35C356.804 148.35 354.904 154 352.604 160.3C350.404 166.5 347.954 172.9 345.254 179.5C342.554 186.1 339.804 192.55 337.004 198.85C334.204 205.05 331.504 210.65 328.904 215.65C326.404 220.65 324.154 224.6 322.154 227.5C320.254 230.5 318.754 232 317.654 232C313.454 232 313.604 226.8 318.104 216.4C322.604 206.2 319.954 188.7 310.154 163.9C300.454 139.3 297.704 127 301.904 127C306.104 127 312.004 136.9 319.604 156.7C327.204 176.4 334.804 176.4 342.404 156.7C350.104 136.9 356.054 127 360.254 127Z" fill="white"/>
<path d="M232 196.35C235.6 196.35 237.95 198.4 239.05 202.5L251.35 210.6H269.8L277 205.5V195.6L270.1 190.8C266.6 190.2 262.8 189.55 258.7 188.85C254.6 188.05 250.2 187.25 245.5 186.45L230.8 175.8V156.15L245.35 144H269.5L284.35 156.9C284.55 164.4 282.9 168.15 279.4 168.15C275.8 168.15 273.35 164.05 272.05 155.85H250.6L242.8 160.95V170.25L251.2 175.5C254.8 176.2 258.65 176.95 262.75 177.75C266.95 178.55 271.4 179.35 276.1 180.15L289 190.2V210.6L275.05 222H248.95L232.45 212.4L226 200.25C226.3 197.65 228.3 196.35 232 196.35Z" fill="white"/>
<path d="M401.55 75.1L384 91H361.2L345.3 81.55L336 63.85V40.45L345.3 22.6L361.2 13H383.85L401.4 28.9C402.6 38 401.4 42.55 397.8 42.55C394.1 42.55 391.35 39.6 389.55 33.7L379.2 24.55H364.65L354.15 31.15L348 43.6V60.7L354.15 73L364.65 79.45H379.35L389.7 70.3C391.5 64.3 394.2 61.3 397.8 61.3C401.4 61.3 402.65 65.9 401.55 75.1Z" fill="white"/>
<path d="M317.8 7.2C317.8 12.1 315.2 14.55 310 14.55C304.8 14.55 302.2 12.1 302.2 7.2C302.2 2.4 304.8 0 310 0C315.2 0 317.8 2.4 317.8 7.2ZM326.5 93.75C333.5 93.75 337 95.6 337 99.3C337 103.1 327.5 105 308.5 105C289.5 105 280 103.1 280 99.3C280 95.6 284 93.75 292 93.75C300 93.75 304 85 304 67.5C304 50 300 41.25 292 41.25C284 41.25 280 39.35 280 35.55C280 31.85 286 30 298 30C310 30 316 40.6 316 61.8C316 83.1 319.5 93.75 326.5 93.75Z" fill="white"/>
<path d="M264.25 63.3L249.1 73.05C247.6 76.95 246.85 85.1 246.85 97.5C246.85 110 251.2 116.25 259.9 116.25C268.5 116.25 272.8 118.1 272.8 121.8C272.8 125.6 264 127.5 246.4 127.5C228.8 127.5 220 125.6 220 121.8C220 118.1 222.5 116.25 227.5 116.25C232.4 116.25 234.85 105.6 234.85 84.3C234.85 63.1 236.85 52.5 240.85 52.5C244.85 52.5 246.85 55.75 246.85 62.25C246.85 65.45 247.05 67.25 247.45 67.65C247.95 67.95 248.6 66.8 249.4 64.2L264.85 51C275.05 51 280.15 53.05 280.15 57.15C280.15 61.25 274.85 63.3 264.25 63.3Z" fill="white"/>
<path d="M152 27C156 27 158 35.5 158 52.5C158 61 158.35 65.55 159.05 66.15C159.85 66.65 161.05 63.1 162.65 55.5H190.1L203.9 65.55L211.4 83.4V105.9L204.05 123.6L191 133.5H172.4L160.4 118.5C159.6 114.9 159 112.6 158.6 111.6C158.2 110.5 158 110.75 158 112.35V120.15L157.1 130.35C156.9 131.45 155 132 151.4 132C147.8 132 146 114.5 146 79.5C146 44.5 148 27 152 27ZM169.25 121.95H189.05L199.4 106.95V81.9L189.8 67.2H169.25L158 82.05V106.5L169.25 121.95Z" fill="white"/>
<path d="M120.4 43.5C124.4 43.5 126.4 56 126.4 81C126.4 106 124.6 118.5 121 118.5C117.4 118.5 115.5 117.95 115.3 116.85L114.4 106.65V98.55C114.4 96.85 114.2 96.5 113.8 97.5C113.4 98.5 112.8 100.85 112 104.55L100 120H81.4L68.35 110.1L61 92.4V69.9L68.5 52.05L82.3 42H101.2L112.3 54.9C113 58.4 113.5 60.15 113.8 60.15C114.2 60.05 114.4 58.15 114.4 54.45C114.4 47.15 116.4 43.5 120.4 43.5ZM103.15 108.45L114.4 93V68.55L103.15 53.7H82.6L73 68.4V93.45L83.35 108.45H103.15Z" fill="white"/>
<path d="M29.85 11.7V27.75C29.85 29.25 35.25 30 46.05 30C56.75 30 62.1 31.85 62.1 35.55C62.1 39.35 56.75 41.25 46.05 41.25C35.25 41.25 29.85 51.85 29.85 73.05C29.85 94.35 27.85 105 23.85 105C19.85 105 17.85 94.35 17.85 73.05C17.85 51.85 14.9 41.25 9 41.25C3 41.25 0 39.35 0 35.55C0 31.85 3 30 9 30C14.9 30 17.85 29.25 17.85 27.75V12.6L31.5 0H53.55C60.35 0 63.75 2 63.75 6C63.75 10 60.35 12 53.55 12C50.15 12 46.45 12 42.45 12C38.55 11.9 34.35 11.8 29.85 11.7Z" fill="white"/>
</svg>
