<svg width="565" height="285" viewBox="0 0 565 285" fill="none" xmlns="http://www.w3.org/2000/svg">
<path d="M285.67 107.369C286.891 106.002 287.647 105.123 287.94 104.732L293.946 109.713C293.946 109.908 292.994 111.397 291.09 114.181C289.186 116.964 286.988 119.527 284.498 121.871C282.057 124.166 279.737 125.313 277.54 125.313C275.538 125.313 273.121 124.947 270.289 124.215C267.506 123.434 263.526 122.237 258.351 120.626C249.464 117.745 243.629 116.305 240.846 116.305C239.527 116.305 238.062 116.915 236.451 118.136C234.84 119.308 233.424 120.577 232.203 121.944C231.031 123.263 230.299 124.117 230.006 124.508L224 119.601C224 119.405 224.952 117.916 226.856 115.133C228.761 112.301 230.934 109.737 233.375 107.442C235.816 105.147 238.136 104 240.333 104C242.872 104 245.729 104.415 248.902 105.245C252.125 106.075 256.129 107.296 260.914 108.907C265.113 110.323 268.434 111.373 270.875 112.057C273.316 112.691 275.392 113.009 277.101 113.009C278.419 113.009 279.859 112.423 281.422 111.251C283.033 110.03 284.449 108.736 285.67 107.369Z" fill="white"/>
<path d="M504.85 188.5L515.95 193.45L523.6 205.45V240.1C523.6 256.7 521.6 265 517.6 265C513.6 265 511.6 257.2 511.6 241.6V200.5H484.75L473.95 213.25C472.65 218.35 472 228.25 472 242.95C472 257.65 470 265 466 265C462 265 460 247.5 460 212.5C460 177.5 462 160 466 160C470 160 472 168.7 472 186.1C472 203.6 472.9 209.45 474.7 203.65L488.2 188.5H504.85Z" fill="white"/>
<path d="M419.9 174.75C410 174.75 405.05 181.1 405.05 193.8V220.95L412.25 227.4C414.35 227.3 416.6 227.25 419 227.25C421.4 227.25 423.95 227.25 426.65 227.25C431.95 227.25 434.6 229.1 434.6 232.8C434.6 236.6 431.95 238.5 426.65 238.5H406.7L393.05 225.9V193.8C393.05 181.1 389.9 174.75 383.6 174.75C377.2 174.75 374 172.85 374 169.05C374 165.35 377.2 163.5 383.6 163.5C389.9 163.5 393.05 160.25 393.05 153.75C393.05 147.25 395.05 144 399.05 144C403.05 144 405.05 147.25 405.05 153.75C405.05 160.25 410 163.5 419.9 163.5C429.7 163.5 434.6 165.35 434.6 169.05C434.6 172.85 429.7 174.75 419.9 174.75Z" fill="white"/>
<path d="M472.85 73L483.95 77.95L491.6 89.95V124.6C491.6 141.2 489.6 149.5 485.6 149.5C481.6 149.5 479.6 141.7 479.6 126.1V85H452.75L442.1 97.9C440.7 103.3 440 113.2 440 127.6C440 142.2 438 149.5 434 149.5C430 149.5 428 137 428 112C428 87 430 74.5 434 74.5C438 74.5 440 78.2 440 85.6C440 93.1 440.9 93.95 442.7 88.15L456.2 73H472.85Z" fill="white"/>
<path d="M427.254 23C428.354 23 428.654 24.5 428.154 27.5C427.754 30.4 426.804 34.35 425.304 39.35C423.804 44.35 421.904 50 419.604 56.3C417.404 62.5 414.954 68.9 412.254 75.5C409.554 82.1 406.804 88.55 404.004 94.85C401.204 101.05 398.504 106.65 395.904 111.65C393.404 116.65 391.154 120.6 389.154 123.5C387.254 126.5 385.754 128 384.654 128C380.454 128 380.604 122.8 385.104 112.4C389.604 102.2 386.954 84.7 377.154 59.9C367.454 35.3 364.704 23 368.904 23C373.104 23 379.004 32.9 386.604 52.7C394.204 72.4 401.804 72.4 409.404 52.7C417.104 32.9 423.054 23 427.254 23Z" fill="white"/>
<path d="M309 120.35C312.6 120.35 314.95 122.4 316.05 126.5L328.35 134.6H346.8L354 129.5V119.6L347.1 114.8C343.6 114.2 339.8 113.55 335.7 112.85C331.6 112.05 327.2 111.25 322.5 110.45L307.8 99.8V80.15L322.35 68H346.5L361.35 80.9C361.55 88.4 359.9 92.15 356.4 92.15C352.8 92.15 350.35 88.05 349.05 79.85H327.6L319.8 84.95V94.25L328.2 99.5C331.8 100.2 335.65 100.95 339.75 101.75C343.95 102.55 348.4 103.35 353.1 104.15L366 114.2V134.6L352.05 146H325.95L309.45 136.4L303 124.25C303.3 121.65 305.3 120.35 309 120.35Z" fill="white"/>
<path d="M231.55 195.1L214 211H191.2L175.3 201.55L166 183.85V160.45L175.3 142.6L191.2 133H213.85L231.4 148.9C232.6 158 231.4 162.55 227.8 162.55C224.1 162.55 221.35 159.6 219.55 153.7L209.2 144.55H194.65L184.15 151.15L178 163.6V180.7L184.15 193L194.65 199.45H209.35L219.7 190.3C221.5 184.3 224.2 181.3 227.8 181.3C231.4 181.3 232.65 185.9 231.55 195.1Z" fill="white"/>
<path d="M146.8 148.2C146.8 153.1 144.2 155.55 139 155.55C133.8 155.55 131.2 153.1 131.2 148.2C131.2 143.4 133.8 141 139 141C144.2 141 146.8 143.4 146.8 148.2ZM155.5 234.75C162.5 234.75 166 236.6 166 240.3C166 244.1 156.5 246 137.5 246C118.5 246 109 244.1 109 240.3C109 236.6 113 234.75 121 234.75C129 234.75 133 226 133 208.5C133 191 129 182.25 121 182.25C113 182.25 109 180.35 109 176.55C109 172.85 115 171 127 171C139 171 145 181.6 145 202.8C145 224.1 148.5 234.75 155.5 234.75Z" fill="white"/>
<path d="M556.8 238.55C562 238.55 564.6 236.1 564.6 231.2C564.6 226.4 562 224 556.8 224C551.6 224 549 226.4 549 231.2C549 236.1 551.6 238.55 556.8 238.55Z" fill="white"/>
<path d="M90.25 220.3L75.1 230.05C73.6 233.95 72.85 242.1 72.85 254.5C72.85 267 77.2 273.25 85.9 273.25C94.5 273.25 98.8 275.1 98.8 278.8C98.8 282.6 90 284.5 72.4 284.5C54.8 284.5 46 282.6 46 278.8C46 275.1 48.5 273.25 53.5 273.25C58.4 273.25 60.85 262.6 60.85 241.3C60.85 220.1 62.85 209.5 66.85 209.5C70.85 209.5 72.85 212.75 72.85 219.25C72.85 222.45 73.05 224.25 73.45 224.65C73.95 224.95 74.6 223.8 75.4 221.2L90.85 208C101.05 208 106.15 210.05 106.15 214.15C106.15 218.25 100.85 220.3 90.25 220.3Z" fill="white"/>
<path d="M132 13C136 13 138 21.5 138 38.5C138 47 138.35 51.55 139.05 52.15C139.85 52.65 141.05 49.1 142.65 41.5H170.1L183.9 51.55L191.4 69.4V91.9L184.05 109.6L171 119.5H152.4L140.4 104.5C139.6 100.9 139 98.6 138.6 97.6C138.2 96.5 138 96.75 138 98.35V106.15L137.1 116.35C136.9 117.45 135 118 131.4 118C127.8 118 126 100.5 126 65.5C126 30.5 128 13 132 13ZM149.25 107.95H169.05L179.4 92.95V67.9L169.8 53.2H149.25L138 68.05V92.5L149.25 107.95Z" fill="white"/>
<path d="M105.4 67.5C109.4 67.5 111.4 80 111.4 105C111.4 130 109.6 142.5 106 142.5C102.4 142.5 100.5 141.95 100.3 140.85L99.4 130.65V122.55C99.4 120.85 99.2 120.5 98.8 121.5C98.4 122.5 97.8 124.85 97 128.55L85 144H66.4L53.35 134.1L46 116.4V93.9L53.5 76.05L67.3 66H86.2L97.3 78.9C98 82.4 98.5 84.15 98.8 84.15C99.2 84.05 99.4 82.15 99.4 78.45C99.4 71.15 101.4 67.5 105.4 67.5ZM88.15 132.45L99.4 117V92.55L88.15 77.7H67.6L58 92.4V117.45L68.35 132.45H88.15Z" fill="white"/>
<path d="M29.85 11.7V27.75C29.85 29.25 35.25 30 46.05 30C56.75 30 62.1 31.85 62.1 35.55C62.1 39.35 56.75 41.25 46.05 41.25C35.25 41.25 29.85 51.85 29.85 73.05C29.85 94.35 27.85 105 23.85 105C19.85 105 17.85 94.35 17.85 73.05C17.85 51.85 14.9 41.25 9 41.25C3 41.25 0 39.35 0 35.55C0 31.85 3 30 9 30C14.9 30 17.85 29.25 17.85 27.75V12.6L31.5 0H53.55C60.35 0 63.75 2 63.75 6C63.75 10 60.35 12 53.55 12C50.15 12 46.45 12 42.45 12C38.55 11.9 34.35 11.8 29.85 11.7Z" fill="white"/>
</svg>
